<svg xmlns="http://www.w3.org/2000/svg" viewBox="4 4 90 90" x="0px" y="0px">
  <style>
    g path {
      stroke-dasharray: 263;
      stroke-dashoffset: 0;
      animation: draw 1.5s;
      animation-timing-function: ease-in;
    }
    @keyframes draw {
      0% { stroke-dashoffset: 263; }
      100% { stroke-dashoffset: 0; }
    }
  </style>
  <g>
  <path d="M48.78,92.57A41.75,41.75,0,1,0,7,50.82,41.8,41.8,0,0,0,48.78,92.57Zm0-78.5A36.75,36.75,0,1,1,12,50.82,36.79,36.79,0,0,1,48.78,14.07Z" style="stroke: lime;"/>
  <path d="M33.33,59.88a15.45,15.45,0,1,0,23.85-13,15.44,15.44,0,0,0,7.05-13,2.5,2.5,0,0,0-5,0,10.45,10.45,0,0,1-20.9,0,2.5,2.5,0,0,0-5,0,15.44,15.44,0,0,0,7.05,13A15.44,15.44,0,0,0,33.33,59.88ZM48.78,49.42A10.45,10.45,0,1,1,38.33,59.88,10.46,10.46,0,0,1,48.78,49.42Z" style="stroke: lime"/>
  </g>
</svg>
